# xmcd CD database file
#
# Track frame offsets:
#	151
#	12634
#	25373
#	34716
#	45340
#	55482
#	67158
#	76254
#	86893
#	97455
#	109500
#	119016
#	128313
#	139581
#	149870
#	160536
#	171861
#	182795
#
# Disc length: 2565 seconds
#
# Revision: 4
# Processed by: cddbd v1.5.2PL0 Copyright (c) Steve Scherf et al.
# Submitted via: CDex 1.70beta2
#
DISCID=030a0312
DTITLE=Paul Mauriat - My first recordings
DYEAR=1965
DGENRE=Pop
TTITLE0=Io Che Non Vivo
TTITLE1=La Boheme
TTITLE2=Vous Les Femmes
TTITLE3=La Nuit
TTITLE4=It's not unusual
TTITLE5=The little drummer boy
TTITLE6=Le Rossignol Anglais
TTITLE7=Il Silenzio
TTITLE8=Aux Jenes Loups
TTITLE9=Capri c'est Fini
TTITLE10=Attends Ou Va T'en
TTITLE11=N'avous Jamais
TTITLE12=Une Petite Cantate
TTITLE13=Mes Mains Sur Tes Hanches
TTITLE14=Le Ciel, Le Soleil Et La Mer
TTITLE15=Love in every room
TTITLE16=Comme Toujours
TTITLE17=Mon Amie La Rose
EXTD=YEAR: 1965
EXTT0=
EXTT1=
EXTT2=
EXTT3=
EXTT4=
EXTT5=
EXTT6=
EXTT7=
EXTT8=
EXTT9=
EXTT10=
EXTT11=
EXTT12=
EXTT13=
EXTT14=
EXTT15=
EXTT16=
EXTT17=
PLAYORDER=
